<?xml version="1.0" encoding="UTF-8" standalone="no"?>
<!-- Created with Inkscape (http://www.inkscape.org/) -->

<svg
   version="1.1"
   id="svg2"
   xml:space="preserve"
   width="490.272"
   height="490.27118"
   viewBox="0 0 490.27201 490.27118"
   sodipodi:docname="Education_(165).svg"
   inkscape:version="1.2 (dc2aeda, 2022-05-15)"
   xmlns:inkscape="http://www.inkscape.org/namespaces/inkscape"
   xmlns:sodipodi="http://sodipodi.sourceforge.net/DTD/sodipodi-0.dtd"
   xmlns="http://www.w3.org/2000/svg"
   xmlns:svg="http://www.w3.org/2000/svg"><defs
     id="defs6" /><sodipodi:namedview
     id="namedview4"
     pagecolor="#ffffff"
     bordercolor="#666666"
     borderopacity="1.0"
     inkscape:pageshadow="2"
     inkscape:pageopacity="0.0"
     inkscape:pagecheckerboard="0"
     inkscape:showpageshadow="2"
     inkscape:deskcolor="#d1d1d1"
     showgrid="false"
     inkscape:zoom="1.558977"
     inkscape:cx="146.57048"
     inkscape:cy="245.35321"
     inkscape:window-width="1792"
     inkscape:window-height="1067"
     inkscape:window-x="0"
     inkscape:window-y="25"
     inkscape:window-maximized="1"
     inkscape:current-layer="g10" /><g
     id="g8"
     inkscape:groupmode="layer"
     inkscape:label="ink_ext_XXXXXX"
     transform="matrix(1.3333333,0,0,-1.3333333,-2.8009299,490.27561)"><g
       id="g10"
       transform="scale(0.1)"><path
         d="M 561.418,3136.66 C 809.215,3384.46 1591.27,3004.15 2308.2,2287.23 3025.12,1570.29 3405.43,788.242 3157.63,540.438 2909.84,292.645 2127.78,672.949 1410.86,1389.88 693.93,2106.8 313.621,2888.87 561.418,3136.66 Z"
         style="fill:none;stroke:#eec10d;stroke-width:115.2;stroke-linecap:butt;stroke-linejoin:miter;stroke-miterlimit:2.6131;stroke-dasharray:none;stroke-opacity:1"
         id="path12" /><path
         d="m 2334.67,3611.8 c 338.49,-90.7 400.17,-958.13 137.76,-1937.48 C 2210,694.988 1722.88,-25.4023 1384.39,65.3008 1045.89,156.008 984.219,1023.44 1246.63,2002.78 1509.04,2982.12 1996.18,3702.5 2334.67,3611.8 Z"
         style="fill:none;stroke:#e75959;stroke-width:115.2;stroke-linecap:butt;stroke-linejoin:miter;stroke-miterlimit:2.6131;stroke-dasharray:none;stroke-opacity:1"
         id="path14" /><path
         d="M 86.2734,1363.41 C -4.42188,1701.9 715.961,2189.04 1695.3,2451.45 2674.64,2713.86 3542.08,2652.19 3632.78,2313.7 3723.48,1975.2 3003.09,1488.07 2023.75,1225.65 1044.41,963.242 176.977,1024.92 86.2734,1363.41 Z"
         style="fill:none;stroke:#53beb4;stroke-width:115.2;stroke-linecap:butt;stroke-linejoin:miter;stroke-miterlimit:2.6131;stroke-dasharray:none;stroke-opacity:1"
         id="path16" /><path
         d="m 1785.9319,1949.5575 c 56.14,56.14 147.165,56.14 203.3,0 56.145,-56.14 56.145,-147.165 0,-203.305 -56.135,-56.14 -147.16,-56.14 -203.3,0 -56.14,56.14 -56.14,147.165 0,203.305"
         style="fill:#f94b53;fill-opacity:1.0;fill-rule:evenodd;stroke:none;stroke-width:0.5"
         id="path18" /></g></g></svg>
